<?xml version="1.0" standalone="no"?><!DOCTYPE svg PUBLIC "-//W3C//DTD SVG 1.1//EN" "http://www.w3.org/Graphics/SVG/1.1/DTD/svg11.dtd"><svg t="1714011369672" class="icon" viewBox="0 0 1024 1024" version="1.1" xmlns="http://www.w3.org/2000/svg" p-id="1481" xmlns:xlink="http://www.w3.org/1999/xlink" width="200" height="200"><path d="M512 512m-485.4784 0a485.4784 485.4784 0 1 0 970.9568 0 485.4784 485.4784 0 1 0-970.9568 0Z" fill="#d81e06" p-id="1482" data-spm-anchor-id="a313x.collections_detail.0.i4.61d03a819Mazlp" class="selected"></path><path d="M539.0848 270.08l68.1984 138.24 152.4736 22.1184a30.208 30.208 0 0 1 16.7424 51.5072l-110.336 107.52 26.0608 151.9104a30.208 30.208 0 0 1-43.8272 31.8464L512 701.44l-136.3968 71.68a30.208 30.208 0 0 1-43.8272-31.8464l26.0608-151.9104-110.336-107.52a30.208 30.208 0 0 1 16.7424-51.5072l152.4736-22.1184 68.1984-138.24a30.208 30.208 0 0 1 54.1696 0.1024z" fill="#FFFFFF" p-id="1483"></path></svg>