<?xml version="1.0" standalone="no"?><!DOCTYPE svg PUBLIC "-//W3C//DTD SVG 1.1//EN" "http://www.w3.org/Graphics/SVG/1.1/DTD/svg11.dtd"><svg t="1714011354745" class="icon" viewBox="0 0 1024 1024" version="1.1" xmlns="http://www.w3.org/2000/svg" p-id="1255" xmlns:xlink="http://www.w3.org/1999/xlink" width="200" height="200"><path d="M512 512m-485.4784 0a485.4784 485.4784 0 1 0 970.9568 0 485.4784 485.4784 0 1 0-970.9568 0Z" fill="#d81e06" p-id="1256" data-spm-anchor-id="a313x.collections_detail.0.i2.61d03a819Mazlp" class="selected"></path><path d="M632.6272 254.72m44.6976 0l27.9552 0q44.6976 0 44.6976 44.6976l0 292.5056q0 44.6976-44.6976 44.6976l-27.9552 0q-44.6976 0-44.6976-44.6976l0-292.5056q0-44.6976 44.6976-44.6976Z" fill="#FFFFFF" p-id="1257"></path><path d="M453.3248 329.216m44.6976 0l27.9552 0q44.6976 0 44.6976 44.6976l0 217.9584q0 44.6976-44.6976 44.6976l-27.9552 0q-44.6976 0-44.6976-44.6976l0-217.9584q0-44.6976 44.6976-44.6976Z" fill="#FFFFFF" p-id="1258"></path><path d="M274.0224 412.2112m44.6976 0l27.9552 0q44.6976 0 44.6976 44.6976l0 135.0144q0 44.6976-44.6976 44.6976l-27.9552 0q-44.6976 0-44.6976-44.6976l0-135.0144q0-44.6976 44.6976-44.6976Z" fill="#FFFFFF" p-id="1259"></path><path d="M220.16 666.0608m41.8304 0l496.9472 0q41.8304 0 41.8304 41.8304l0 17.6128q0 41.8304-41.8304 41.8304l-496.9472 0q-41.8304 0-41.8304-41.8304l0-17.6128q0-41.8304 41.8304-41.8304Z" fill="#FFFFFF" p-id="1260"></path></svg>