<?xml version="1.0" standalone="no"?><!DOCTYPE svg PUBLIC "-//W3C//DTD SVG 1.1//EN" "http://www.w3.org/Graphics/SVG/1.1/DTD/svg11.dtd"><svg t="1714011419737" class="icon" viewBox="0 0 1024 1024" version="1.1" xmlns="http://www.w3.org/2000/svg" p-id="1920" xmlns:xlink="http://www.w3.org/1999/xlink" width="200" height="200"><path d="M512 512m-485.4784 0a485.4784 485.4784 0 1 0 970.9568 0 485.4784 485.4784 0 1 0-970.9568 0Z" fill="#d81e06" p-id="1921" data-spm-anchor-id="a313x.collections_detail.0.i8.61d03a819Mazlp" class="selected"></path><path d="M683.776 324.8128h-8.8064v-38.4512A81.5616 81.5616 0 0 0 593.5104 204.8H430.4896a81.5616 81.5616 0 0 0-81.4592 81.5616v38.4512h-8.8064A108.7488 108.7488 0 0 0 231.5776 430.08h560.8448a108.7488 108.7488 0 0 0-108.6464-105.2672z m-273.3056-38.4512A20.0192 20.0192 0 0 1 430.4896 266.24h163.0208a20.0192 20.0192 0 0 1 20.0192 20.0192v38.4512H410.4704zM231.3728 482.56v178.8416c0 65.1776 48.7424 117.76 108.8512 117.76h343.552c60.1088 0 108.8512-52.8384 108.8512-117.76V482.56z m326.7072 99.328H465.92a30.72 30.72 0 0 1 0-61.44h92.16a30.72 30.72 0 0 1 0 61.44z" fill="#FFFFFF" p-id="1922"></path></svg>