<?xml version="1.0" standalone="no"?><!DOCTYPE svg PUBLIC "-//W3C//DTD SVG 1.1//EN" "http://www.w3.org/Graphics/SVG/1.1/DTD/svg11.dtd"><svg t="1713966466001" class="icon" viewBox="0 0 1024 1024" version="1.1" xmlns="http://www.w3.org/2000/svg" p-id="17463" xmlns:xlink="http://www.w3.org/1999/xlink" width="200" height="200"><path d="M1013.09 424.91a35.38 35.38 0 0 0-25.54-10.4c-22.19 0.27-35.45 18.49-35.45 35.95v372.87a32.87 32.87 0 0 1-32.83 32.84H101.11a32.87 32.87 0 0 1-32.83-32.84V200.67a32.87 32.87 0 0 1 32.83-32.84h796.1L506.43 513.66 254.24 304.1c-8.49-8.41-17.38-12.68-26.42-12.68s-18.1 4.35-26.67 12.91l-0.8 0.8-0.51 1c-3.92 7.84-8 16-8 24.84 0 9.13 4.34 18.1 12.91 26.66l0.23 0.24 271.54 224.47 1.78 1.78a21.18 21.18 0 0 0 5.23 8.84c8.56 8.57 17.53 12.91 26.66 12.91h8.9l1.47-0.74c8-4 15.49-7.75 19.91-12.17l10.75-10.74 83.15-75.92 3.72-3.71L1007 169.46a11.92 11.92 0 0 0 3.9-8.49 11.8 11.8 0 0 0-2.68-7.81c-19.9-35.31-55.37-57.23-92.61-57.23H104.73A102.77 102.77 0 0 0 30.49 127C10.83 147.17 0 174.62 0 204.29v615.42a108.48 108.48 0 0 0 108.35 108.36h810.92A102.8 102.8 0 0 0 993.51 897c19.66-20.17 30.49-47.62 30.49-77.29V450.93a36.85 36.85 0 0 0-10.91-26.02z" p-id="17464"></path></svg>